<svg xmlns="http://www.w3.org/2000/svg" width="840" height="416" viewBox="0 0 840 416" role="img" aria-label="alfonza1 — skills monitor">
  <style>
    text { font-family: 'JetBrains Mono','SFMono-Regular',ui-monospace,'Cascadia Code',Consolas,'Liberation Mono',Menlo,monospace; font-size: 14px; }
    .ln { opacity: 0; animation: appear .35s ease forwards; }
    @keyframes appear { to { opacity: 1; } }
    .bar { transform: scaleX(0); transform-origin: left center; transform-box: fill-box; animation: grow 1.1s cubic-bezier(.2,.8,.2,1) forwards; }
    @keyframes grow { to { transform: scaleX(1); } }
    @media (prefers-reduced-motion: reduce){ .ln{opacity:1;animation:none;} .bar{transform:none;animation:none;} }
  </style>
  <rect x="1" y="1" width="838" height="414" rx="10" fill="#0d1117" stroke="#30363d" stroke-width="1.5"/>
  <path d="M1 11 a10 10 0 0 1 10 -10 h818 a10 10 0 0 1 10 10 v29 h-838 z" fill="#161b22"/>
  <line x1="1" y1="40" x2="839" y2="40" stroke="#30363d"/>
  <circle cx="20" cy="20" r="6" fill="#f85149"/><circle cx="40" cy="20" r="6" fill="#d29922"/><circle cx="60" cy="20" r="6" fill="#3fb950"/>
  <text x="420" y="25" text-anchor="middle" fill="#8b949e" font-size="12">btop — alfonza1@github</text>
  <text x="28" y="72" class="ln" style="animation-delay:.15s"><tspan fill="#3fb950">●</tspan><tspan fill="#c9d1d9" font-weight="700">  alfonza1</tspan><tspan fill="#8b949e">  Full-Stack Developer @ JPMorgan Chase</tspan></text><text x="812" y="72" text-anchor="end" fill="#8b949e" class="ln" style="animation-delay:.15s">Philadelphia, PA</text><text x="28" y="102" class="ln" style="animation-delay:.3s"><tspan fill="#58a6ff" font-weight="600">uptime</tspan><tspan fill="#8b949e">  </tspan><tspan fill="#c9d1d9">26 years, 4 months, 15 days</tspan><tspan fill="#8b949e">   ·   </tspan><tspan fill="#58a6ff" font-weight="600">repos</tspan><tspan fill="#8b949e"> </tspan><tspan fill="#d29922">43</tspan><tspan fill="#8b949e">   ·   </tspan><tspan fill="#58a6ff" font-weight="600">commits</tspan><tspan fill="#8b949e"> </tspan><tspan fill="#d29922">468</tspan></text><text x="28" y="134" fill="#8b949e" font-size="12" letter-spacing="1.5" class="ln" style="animation-delay:.4s">SKILL LOAD</text><g class="ln" style="animation-delay:0.50s"><text x="28" y="163" fill="#c9d1d9">Java / Spring</text><rect x="322" y="152" width="422" height="14" rx="4" fill="#21262d"/><rect x="322" y="152" width="388" height="14" rx="4" fill="#3fb950" class="bar" style="animation-delay:0.50s"/><text x="812" y="163" text-anchor="end" fill="#8b949e">92%</text></g><g class="ln" style="animation-delay:0.64s"><text x="28" y="197" fill="#c9d1d9">TypeScript / React</text><rect x="322" y="186" width="422" height="14" rx="4" fill="#21262d"/><rect x="322" y="186" width="371" height="14" rx="4" fill="#39c5cf" class="bar" style="animation-delay:0.64s"/><text x="812" y="197" text-anchor="end" fill="#8b949e">88%</text></g><g class="ln" style="animation-delay:0.78s"><text x="28" y="231" fill="#c9d1d9">Cloud / DevOps (AWS, Docker)</text><rect x="322" y="220" width="422" height="14" rx="4" fill="#21262d"/><rect x="322" y="220" width="338" height="14" rx="4" fill="#58a6ff" class="bar" style="animation-delay:0.78s"/><text x="812" y="231" text-anchor="end" fill="#8b949e">80%</text></g><g class="ln" style="animation-delay:0.92s"><text x="28" y="265" fill="#c9d1d9">SQL / PostgreSQL</text><rect x="322" y="254" width="422" height="14" rx="4" fill="#21262d"/><rect x="322" y="254" width="346" height="14" rx="4" fill="#bc8cff" class="bar" style="animation-delay:0.92s"/><text x="812" y="265" text-anchor="end" fill="#8b949e">82%</text></g><g class="ln" style="animation-delay:1.06s"><text x="28" y="299" fill="#c9d1d9">CI/CD &amp; Testing</text><rect x="322" y="288" width="422" height="14" rx="4" fill="#21262d"/><rect x="322" y="288" width="359" height="14" rx="4" fill="#d29922" class="bar" style="animation-delay:1.06s"/><text x="812" y="299" text-anchor="end" fill="#8b949e">85%</text></g><g class="ln" style="animation-delay:1.20s"><text x="28" y="333" fill="#c9d1d9">System design</text><rect x="322" y="322" width="422" height="14" rx="4" fill="#21262d"/><rect x="322" y="322" width="329" height="14" rx="4" fill="#3fb950" class="bar" style="animation-delay:1.20s"/><text x="812" y="333" text-anchor="end" fill="#8b949e">78%</text></g><text x="28" y="384" class="ln" style="animation-delay:1.5s"><tspan fill="#bc8cff" font-weight="600">projects</tspan><tspan fill="#8b949e">  playlastwords.com  ·  incident-commander</tspan></text><text x="812" y="384" text-anchor="end" fill="#8b949e" class="ln" style="animation-delay:1.5s">alfonza-dev.web.app</text>
</svg>
